<svg width="1259" height="127" viewBox="0 0 1259 127" fill="none" xmlns="http://www.w3.org/2000/svg">
<path d="M287 62.5C287 97.0178 259.018 125 224.5 125C189.982 125 162 97.0178 162 62.5C162 27.9822 189.982 0 224.5 0C259.018 0 287 27.9822 287 62.5Z" fill="#F2AD43"/>
<path d="M269.109 38.76C267.893 39.016 263.733 39.208 256.629 39.336H254.805C231.509 39.656 219.893 39.816 219.957 39.816C212.853 39.816 208.789 39.624 207.765 39.24C206.613 38.088 204.181 36.232 200.469 33.672C197.141 31.496 192.149 28.168 185.493 23.688L185.877 23.304C191.957 23.048 199.061 22.92 207.189 22.92C210.581 22.92 215.669 22.952 222.453 23.016C229.237 23.08 234.325 23.112 237.717 23.112C239.893 23.112 241.557 23.176 242.709 23.304L242.805 23.496C244.725 23.944 247.861 25.736 252.213 28.872C256.821 32.072 260.181 34.024 262.293 34.728L262.389 35.016C262.709 35.144 264.949 36.392 269.109 38.76ZM269.013 41.832C269.013 42.088 268.917 42.824 268.725 44.04C268.533 45.192 268.501 45.96 268.629 46.344L263.637 91.56C263.125 96.168 262.549 99.592 261.909 101.832L261.141 101.64C260.565 101.768 259.797 101.864 258.837 101.928C252.885 102.312 246.933 102.728 240.981 103.176C233.877 103.624 227.893 103.848 223.029 103.848C220.853 103.848 219.253 103.976 218.229 104.232L217.461 104.04C215.733 104.424 213.397 104.68 210.453 104.808C206.933 104.936 204.597 105.064 203.445 105.192C203.253 104.808 202.997 104.2 202.677 103.368L208.149 42.888C208.725 41.736 209.429 40.936 210.261 40.488C211.733 40.616 212.853 40.68 213.621 40.68C214.709 40.68 216.341 40.616 218.517 40.488C220.757 40.296 222.421 40.2 223.509 40.2C228.437 40.2 235.797 40.168 245.589 40.104C255.381 39.976 262.741 39.912 267.669 39.912C268.565 39.912 269.013 40.552 269.013 41.832ZM207.285 40.968C207.221 41.288 207.125 42.44 206.997 44.424C206.741 48.456 205.333 63.432 202.773 89.352C202.709 92.616 202.325 97.48 201.621 103.944L201.429 104.136L201.045 104.04L200.853 104.232L179.349 84.936C179.029 84.104 178.869 82.856 178.869 81.192C178.869 79.208 179.221 73.704 179.925 64.68C180.693 55.144 181.493 46.088 182.325 37.512C182.709 33.608 183.253 29.224 183.957 24.36L184.533 24.552C184.981 25 185.461 25.288 185.973 25.416C189.749 27.848 193.493 30.312 197.205 32.808C202.261 36.2 205.621 38.92 207.285 40.968ZM259.797 36.744L239.637 24.936C239.189 24.68 232.085 24.552 218.325 24.552C202.645 24.552 194.549 24.808 194.037 25.32C194.229 25.384 194.325 25.448 194.325 25.512C194.325 25.576 194.293 25.608 194.229 25.608L211.125 37.032C212.021 37.608 217.461 37.896 227.445 37.896C247.797 37.896 258.581 37.512 259.797 36.744ZM262.581 49.128C262.581 47.848 262.005 46.984 260.853 46.536L260.565 46.824L259.797 46.344C245.653 46.472 231.157 46.824 216.309 47.4C214.773 48.296 213.781 51.048 213.333 55.656L209.973 90.792C209.909 91.432 209.877 92.392 209.877 93.672C209.877 96.04 210.453 97.608 211.605 98.376L256.341 95.784L257.589 93.864L262.101 54.888C262.037 54.696 262.005 54.312 262.005 53.736C262.005 53.224 262.101 52.456 262.293 51.432C262.485 50.408 262.581 49.64 262.581 49.128ZM204.117 46.152L203.445 44.424L188.469 33.384C188.085 33.384 187.669 33.16 187.221 32.712C186.773 32.264 186.389 32.04 186.069 32.04L185.877 32.136C185.685 32.392 185.461 32.872 185.205 33.576C185.269 33.704 185.301 33.864 185.301 34.056C185.301 34.12 185.269 34.216 185.205 34.344C185.141 34.472 185.109 34.568 185.109 34.632L181.557 76.968C181.557 76.968 181.557 77.192 181.557 77.64C181.557 79.624 182.389 81.352 184.053 82.824C186.549 85.128 189.013 87.432 191.445 89.736C195.221 93.064 197.781 94.824 199.125 95.016C199.573 94.696 199.797 94.408 199.797 94.152L204.117 46.152ZM244.725 33.288C244.597 33.288 244.437 33.288 244.245 33.288C244.053 33.288 243.733 33.288 243.285 33.288C242.837 33.352 242.485 33.384 242.229 33.384C241.653 33.384 240.821 33.192 239.733 32.808C238.709 32.36 237.909 32.136 237.333 32.136C236.501 32.136 234.229 32.104 230.517 32.04C227.765 31.976 225.525 31.944 223.797 31.944C221.557 31.944 219.765 32.104 218.421 32.424L218.325 32.616C218.581 32.872 218.965 33.096 219.477 33.288L219.669 33.48C219.157 33.608 218.709 33.672 218.325 33.672C218.005 33.672 217.557 33.64 216.981 33.576C216.405 33.512 215.957 33.48 215.637 33.48C214.677 32.904 213.237 31.976 211.317 30.696C210.933 30.248 210.325 29.64 209.493 28.872H211.029C212.629 28.872 213.525 29.128 213.717 29.64L214.005 29.928C215.285 30.12 218.325 30.216 223.125 30.216C224.021 30.216 225.365 30.216 227.157 30.216C228.949 30.216 230.293 30.216 231.189 30.216C233.685 30.216 234.933 29.992 234.933 29.544C234.549 29.16 234.229 28.904 233.973 28.776C234.421 28.712 234.869 28.68 235.317 28.68C235.445 28.68 236.245 28.712 237.717 28.776C239.509 29.672 241.845 31.176 244.725 33.288ZM246.165 57.384C246.037 57.512 245.877 58.216 245.685 59.496C245.557 60.52 245.205 61.032 244.629 61.032C244.373 61.032 244.021 61 243.573 60.936C243.125 60.808 242.773 60.744 242.517 60.744C242.005 60.744 241.653 61.032 241.461 61.608L241.173 61.704C241.237 62.088 241.269 62.376 241.269 62.568C241.269 63.336 241.077 64.488 240.693 66.024C240.309 67.496 240.117 68.616 240.117 69.384C240.117 69.768 240.149 70.344 240.213 71.112C240.277 71.816 240.309 72.36 240.309 72.744C240.309 73.64 240.053 74.984 239.541 76.776C239.029 78.504 238.773 79.816 238.773 80.712C238.773 82.696 240.085 83.688 242.709 83.688L242.901 83.496C243.157 83.752 243.285 84.072 243.285 84.456C243.285 84.776 243.189 85.288 242.997 85.992C242.805 86.632 242.773 87.176 242.901 87.624C242.261 87.56 241.301 87.528 240.021 87.528C238.229 87.528 236.725 87.688 235.509 88.008C235.253 87.944 234.869 87.912 234.357 87.912C231.029 87.912 229.621 87.944 230.133 88.008C229.749 88.2 229.301 88.296 228.789 88.296C228.469 88.296 227.989 88.232 227.349 88.104C226.709 87.976 226.229 87.912 225.909 87.912C225.909 88.104 225.909 87.496 225.909 86.088C225.909 84.744 226.709 84.04 228.309 83.976C229.909 83.912 230.805 83.24 230.997 81.96C231.189 80.872 231.349 77.736 231.477 72.552C231.605 68.52 232.053 65.48 232.821 63.432C232.821 61.768 232.181 60.936 230.901 60.936C230.709 60.936 230.389 61 229.941 61.128C229.557 61.256 229.269 61.32 229.077 61.32C228.821 61.32 228.629 61.288 228.501 61.224C228.437 61.096 228.405 60.84 228.405 60.456C228.405 60.392 228.597 59.208 228.981 56.904C229.941 57.16 231.029 57.288 232.245 57.288C233.077 57.288 234.325 57.192 235.989 57C237.653 56.744 238.901 56.616 239.733 56.616C240.437 56.616 241.493 56.744 242.901 57C244.373 57.256 245.461 57.384 246.165 57.384ZM199.125 59.304C198.997 63.336 198.389 69.288 197.301 77.16L196.341 76.584L195.957 76.104C195.957 75.72 195.989 75.144 196.053 74.376C196.117 73.608 196.149 73.032 196.149 72.648C196.149 71.56 195.477 70.504 194.133 69.48C192.981 68.712 191.861 67.944 190.773 67.176C190.197 65.832 189.429 65.16 188.469 65.16C188.277 65.16 188.085 65.224 187.893 65.352C187.829 66.184 187.701 67.432 187.509 69.096L185.973 67.848C186.357 64.008 186.965 58.248 187.797 50.568C187.989 51.016 188.373 51.4 188.949 51.72C189.013 51.912 189.045 52.136 189.045 52.392C189.045 52.712 189.013 53.128 188.949 53.64C188.885 54.152 188.853 54.568 188.853 54.888C188.853 55.016 188.885 55.496 188.949 56.328C189.205 56.456 189.749 57 190.581 57.96C191.221 58.664 191.893 59.016 192.597 59.016C192.981 59.016 193.589 59.592 194.421 60.744C195.253 61.896 195.861 62.472 196.245 62.472C197.077 62.472 197.493 61.128 197.493 58.44L197.877 58.248L198.741 59.208L199.125 59.304Z" fill="black"/>
<path d="M125 62.5C125 97.0178 97.0178 125 62.5 125C27.9822 125 0 97.0178 0 62.5C0 27.9822 27.9822 0 62.5 0C97.0178 0 125 27.9822 125 62.5Z" fill="#F2AD43"/>
<path d="M97.733 39.048C97.029 39.688 89.157 40.68 74.117 42.024C65.157 42.728 56.165 43.432 47.141 44.136C42.149 44.584 38.661 44.808 36.677 44.808L36.773 44.52C35.941 43.944 34.853 42.536 33.509 40.296C32.613 38.696 31.685 37.096 30.725 35.496C30.277 35.176 29.829 34.6 29.381 33.768C28.933 32.872 28.485 32.264 28.037 31.944L28.133 31.752C28.005 31.624 27.845 31.496 27.653 31.368L25.445 28.104C26.725 27.656 31.109 27.048 38.597 26.28C46.149 25.512 54.405 24.808 63.365 24.168C71.621 23.592 77.221 23.304 80.165 23.304C80.613 23.304 81.573 23.336 83.045 23.4C83.365 24.04 83.941 24.712 84.773 25.416C85.605 26.12 86.117 26.6 86.309 26.856C86.501 27.112 86.757 27.464 87.077 27.912L97.733 39.048ZM99.365 93.48C99.365 96.296 99.173 98.28 98.789 99.432C98.341 99.368 98.117 99.336 98.117 99.336C97.797 99.336 97.413 99.4 96.965 99.528C96.325 99.656 95.909 99.72 95.717 99.72C92.773 99.976 88.357 100.392 82.469 100.968C77.285 101.416 71.173 102.056 64.133 102.888C61.957 102.888 58.757 103.176 54.533 103.752L53.765 103.56C52.485 103.816 47.877 104.36 39.941 105.192L39.557 104.712C39.429 104.328 39.237 103.944 38.981 103.56L37.061 48.072C37.509 46.92 38.085 46.152 38.789 45.768C40.133 45.768 45.925 45.32 56.165 44.424L96.869 40.872C97.829 40.808 98.373 41.384 98.501 42.6C98.501 42.536 98.501 43.496 98.501 45.48C98.501 50.792 98.629 58.792 98.885 69.48C99.205 80.168 99.365 88.168 99.365 93.48ZM38.021 103.272C38.021 102.824 37.957 103.144 37.829 104.232L37.541 103.944C37.093 102.6 35.941 100.392 34.085 97.32C32.741 95.016 31.397 92.744 30.053 90.504C28.517 87.816 27.397 85.416 26.693 83.304C26.757 82.92 26.789 82.728 26.789 82.728C26.789 75.176 26.373 63.336 25.541 47.208C24.965 36.968 24.677 31.304 24.677 30.216C24.741 29.832 24.837 29.416 24.965 28.968L35.621 45.096C35.877 45.48 36.229 51.912 36.677 64.392L38.021 103.272ZM89.669 37.896L89.477 37.8L89.573 37.416C86.117 33.512 82.437 29.576 78.533 25.608C78.021 25.48 76.869 25.416 75.077 25.416C71.749 25.416 64.293 25.928 52.709 26.952C40.293 28.04 33.573 28.904 32.549 29.544L41.669 42.312C41.925 42.376 42.309 42.408 42.821 42.408C46.213 42.408 54.437 41.832 67.493 40.68C81.445 39.464 88.837 38.536 89.669 37.896ZM93.413 92.232L93.029 55.368C92.773 54.856 92.645 54.248 92.645 53.544C92.645 53.16 92.677 52.648 92.741 52.008C92.805 51.368 92.837 50.888 92.837 50.568C92.837 48.968 92.133 47.976 90.725 47.592L90.437 47.88H90.149L89.573 47.592C75.173 48.68 60.549 49.992 45.701 51.528C44.293 52.68 43.589 54.92 43.589 58.248C43.589 62.664 43.941 73.8 44.645 91.656C44.773 95.496 45.605 97.832 47.141 98.664L92.357 94.056L93.413 92.232ZM36.581 94.92C36.581 88.456 36.293 79.016 35.717 66.6C35.653 63.592 35.461 59.112 35.141 53.16C35.013 51.048 33.957 48.168 31.973 44.52C30.053 41.128 28.229 38.632 26.501 37.032H26.213C26.085 37.416 26.021 37.704 26.021 37.896C26.021 41.544 26.245 49.16 26.693 60.744C27.205 73.672 27.621 80.456 27.941 81.096L35.045 94.248C35.045 94.248 35.493 94.92 36.389 96.264C36.517 95.688 36.581 95.24 36.581 94.92ZM76.613 35.4C76.293 36.808 73.701 37.512 68.837 37.512C64.165 37.512 60.965 36.648 59.237 34.92L58.757 33.768L58.277 33.288C57.829 33.224 57.381 33.192 56.933 33.192C55.653 33.192 53.317 33.448 49.925 33.96L49.445 34.248L49.829 34.536L50.117 35.016L50.405 35.112C49.573 35.176 48.293 35.304 46.565 35.496L46.085 35.112L45.797 34.44L45.317 34.056V33.672L44.453 32.904L44.357 32.52C43.653 32.008 43.237 31.4 43.109 30.696C43.301 30.76 43.493 30.792 43.685 30.792C43.877 30.792 44.229 30.76 44.741 30.696C45.253 30.568 45.637 30.504 45.893 30.504C46.341 30.504 46.693 30.536 46.949 30.6C46.885 31.24 47.589 31.56 49.061 31.56C56.613 31.56 62.949 30.952 68.069 29.736L68.165 29.448L67.589 28.584L70.949 28.296C71.845 28.808 73.637 30.728 76.325 34.056L76.613 35.4ZM84.293 67.56C82.693 72.424 77.925 74.856 69.989 74.856C68.837 74.856 67.845 74.984 67.013 75.24C66.757 75.88 66.629 76.392 66.629 76.776C66.629 77.032 66.661 77.448 66.725 78.024C66.853 78.6 66.917 79.016 66.917 79.272C66.917 79.656 66.853 80.008 66.725 80.328C66.789 80.456 66.885 81.192 67.013 82.536C67.077 83.432 67.461 83.944 68.165 84.072C69.125 83.752 70.245 83.592 71.525 83.592L71.813 84.36C71.685 85.96 71.621 86.888 71.621 87.144C71.109 87.464 70.245 87.624 69.029 87.624C67.877 87.56 67.013 87.656 66.437 87.912C66.117 87.848 65.637 87.816 64.997 87.816C63.973 87.816 62.437 88.008 60.389 88.392C58.341 88.776 56.805 88.968 55.781 88.968C55.589 88.968 55.365 88.968 55.109 88.968C54.725 88.904 54.469 88.872 54.341 88.872C54.341 88.744 54.341 88.584 54.341 88.392C54.341 88.136 54.277 87.784 54.149 87.336C54.085 86.824 54.053 86.44 54.053 86.184C54.053 85.48 54.405 85.128 55.109 85.128C55.301 85.128 55.557 85.128 55.877 85.128C56.197 85.192 56.453 85.224 56.645 85.224C57.285 85.224 57.829 84.84 58.277 84.072C58.725 83.304 58.949 82.6 58.949 81.96C58.949 81.448 58.789 80.68 58.469 79.656C58.149 78.568 57.989 77.768 57.989 77.256C57.989 76.232 58.053 74.696 58.181 72.648C58.309 70.536 58.373 68.968 58.373 67.944C58.373 66.408 58.117 65.352 57.605 64.776C57.157 64.136 56.197 63.752 54.725 63.624L54.533 63.912C54.277 63.912 53.893 63.944 53.381 64.008L52.997 60.552C54.853 59.912 58.277 59.336 63.269 58.824C67.493 58.44 71.045 58.248 73.925 58.248C78.853 58.248 81.861 59.112 82.949 60.84C83.141 61.8 83.557 63.208 84.197 65.064C84.197 65.64 84.101 66.216 83.909 66.792L84.293 67.56ZM34.181 79.464C34.181 81.128 34.053 82.344 33.797 83.112L33.317 83.016L33.125 82.632H33.029L32.645 81.864L32.453 81.768C31.429 77.672 30.917 72.36 30.917 65.832C30.917 65.64 30.533 64.2 29.765 61.512C29.637 61.384 29.509 61.224 29.381 61.032L29.093 60.84C29.093 61.288 29.093 61.928 29.093 62.76C29.157 63.656 29.189 64.296 29.189 64.68L28.997 64.584C28.229 63.176 27.877 59.048 27.941 52.2V47.496L28.133 47.88L28.325 47.976L28.517 48.264C28.581 49.416 28.645 50.6 28.709 51.816C28.901 53.224 29.413 54.216 30.245 54.792C30.437 55.432 31.205 56.776 32.549 58.824C32.741 58.568 32.837 58.056 32.837 57.288C32.837 56.52 32.773 55.72 32.645 54.888L33.413 55.752C33.925 61.704 34.181 69.608 34.181 79.464ZM71.909 33.864L71.525 33.768L71.717 33.384C71.589 33.128 71.141 32.712 70.373 32.136L62.405 32.808L62.213 33.384C62.277 33.512 62.725 33.896 63.557 34.536C66.245 34.92 67.621 35.112 67.685 35.112C70.501 35.112 71.909 34.696 71.909 33.864ZM75.845 66.216C75.845 64.104 74.853 62.824 72.869 62.376L72.389 62.76C71.877 62.504 71.301 62.376 70.661 62.376C69.829 62.376 68.709 62.568 67.301 62.952L66.725 62.856L66.533 63.048L66.917 71.112C67.493 71.304 68.101 71.4 68.741 71.4C69.317 71.4 70.661 71.176 72.773 70.728L75.653 67.944C75.781 67.176 75.845 66.6 75.845 66.216ZM33.317 72.648C33.317 69.896 33.221 68.104 33.029 67.272L31.493 64.872C31.493 70.376 31.941 73.736 32.837 74.952H33.029C33.221 74.376 33.317 73.608 33.317 72.648Z" fill="black"/>
<path d="M449 62.5C449 97.0178 421.018 125 386.5 125C351.982 125 324 97.0178 324 62.5C324 27.9822 351.982 0 386.5 0C421.018 0 449 27.9822 449 62.5Z" fill="#F2AD43"/>
<path d="M426.08 96.168C426.08 97.576 426.016 98.664 425.888 99.432C424.736 97.832 421.056 94.472 414.848 89.352C413.952 88.712 412.736 87.72 411.2 86.376C410.752 85.864 410.144 76.36 409.376 57.864C408.672 41.032 408.32 30.248 408.32 25.512C408.32 24.424 408.352 23.56 408.416 22.92L408.608 23.496L408.992 23.592C410.016 25 411.808 27.176 414.368 30.12C417.184 33.384 419.04 35.336 419.936 35.976L420.128 36.456L420.416 36.552C421.056 37.512 422.048 38.632 423.392 39.912C423.904 41.64 424.384 47.144 424.832 56.424C425.664 72.552 426.08 85.8 426.08 96.168ZM409.568 80.904C409.568 82.952 409.376 84.648 408.992 85.992L408.32 85.8C403.2 86.824 395.424 87.592 384.992 88.104C382.88 88.168 379.712 88.328 375.488 88.584C374.784 88.712 373.728 88.904 372.32 89.16C370.08 89.096 366.752 89.352 362.336 89.928L361.664 89.736C361.6 89.736 356.896 90.216 347.552 91.176L346.592 89.352L345.92 31.56C346.368 30.472 346.944 29.672 347.648 29.16C349.248 29.16 354.88 28.616 364.544 27.528L405.536 22.92C405.6 22.92 405.696 22.92 405.824 22.92C406.656 22.92 407.136 23.784 407.264 25.512C407.392 26.728 407.488 27.944 407.552 29.16C408 37.8 408.416 46.408 408.8 54.984C409.312 65.352 409.568 73.992 409.568 80.904ZM425.024 100.296C424.512 100.488 421.664 100.872 416.48 101.448C408.16 102.28 398.624 103.08 387.872 103.848C377.184 104.616 369.92 105 366.08 105V104.904C364.928 104.2 362.624 102.6 359.168 100.104C356.352 97.992 353.984 96.52 352.064 95.688V95.496L351.296 95.208C350.4 94.248 349.024 93.352 347.168 92.52C348.128 92.2 350.496 91.816 354.272 91.368C363.68 90.28 376.8 89.192 393.632 88.104C401.44 87.592 406.432 87.336 408.608 87.336C409.376 87.336 410.016 87.368 410.528 87.432C412.064 89.288 414.368 91.528 417.44 94.152C420 96.2 422.528 98.248 425.024 100.296ZM424.448 88.104C424.448 83.176 424.256 77.096 423.872 69.864C423.488 63.784 423.136 57.704 422.816 51.624C422.752 49.896 422.464 47.304 421.952 43.848L410.432 31.272C410.24 32.104 410.144 32.616 410.144 32.808L411.68 72.168C411.744 73.704 411.808 75.24 411.872 76.776C411.936 78.824 412.192 80.296 412.64 81.192V81.096L412.928 81.672L423.776 91.464H424.064C424.32 90.504 424.448 89.384 424.448 88.104ZM403.04 77.832C402.976 76.552 402.656 69.16 402.08 55.656C401.696 46.76 401.504 39.368 401.504 33.48C401.504 31.432 400.736 30.312 399.2 30.12L398.912 30.312L398.048 29.928C390.24 30.696 382.464 31.464 374.72 32.232C361.792 33.576 354.944 34.472 354.176 34.92C352.768 35.816 352.064 38.312 352.064 42.408C352.064 42.536 352.224 53.992 352.544 76.776C352.608 80.936 353.408 83.4 354.944 84.168L401.888 79.944L403.04 77.832ZM417.248 99.432L416.864 99.336L417.152 99.144L406.016 89.736C405.696 89.48 404.832 89.352 403.424 89.352H402.464C397.088 89.416 390.432 89.832 382.496 90.6C375.84 91.24 369.184 91.88 362.528 92.52C361.376 92.584 360.192 92.648 358.976 92.712C357.568 92.904 356.48 93.224 355.712 93.672L370.112 103.272C370.24 103.272 370.496 103.304 370.88 103.368C371.136 103.368 371.36 103.368 371.552 103.368H372.224L409.664 100.488C411.008 100.424 412.32 100.328 413.6 100.2C415.456 100.072 416.672 99.816 417.248 99.432ZM421.376 67.176C421.376 68.392 421.312 69.288 421.184 69.864C421.248 70.12 421.28 70.408 421.28 70.728C421.28 71.176 421.216 71.816 421.088 72.648C421.024 73.416 420.992 73.992 420.992 74.376C420.8 75.272 420.384 76.52 419.744 78.12L419.072 78.024L418.976 78.216L418.4 77.832L418.208 78.024C417.76 77.576 416.928 75.752 415.712 72.552L415.424 74.76L415.04 74.568L414.656 73.992L414.56 74.088C414.176 71.016 413.984 67.048 413.984 62.184V61.8L414.752 62.088L415.04 62.568C415.232 64.488 415.392 66.408 415.52 68.328C415.904 70.824 416.64 72.456 417.728 73.224H418.304C418.816 72.456 419.072 70.472 419.072 67.272C419.072 64.456 418.88 61.32 418.496 57.864C417.92 53 417.12 50.12 416.096 49.224L415.52 49.32L415.04 49.896C414.784 51.176 414.656 53.096 414.656 55.656L414.464 55.176L413.984 54.984L413.696 54.696C413.696 53.992 413.76 52.712 413.888 50.856C414.016 49.256 414.048 47.976 413.984 47.016L414.848 45.288L415.424 44.904C417.28 45.672 418.816 49.064 420.032 55.08C420.928 59.624 421.376 63.656 421.376 67.176ZM391.616 60.168C391.616 60.552 391.488 61.288 391.232 62.376C390.976 63.464 390.912 64.264 391.04 64.776C390.656 65.416 390.208 66.472 389.696 67.944C385.856 70.824 383.712 72.36 383.264 72.552C382.112 73 379.424 73.224 375.2 73.224C368.608 73.224 364.224 69.608 362.048 62.376C362.24 61.928 362.336 61.48 362.336 61.032C362.336 60.84 362.272 60.552 362.144 60.168L361.76 59.688C361.696 58.344 361.952 56.456 362.528 54.024V53.16C362.528 52.648 362.784 51.944 363.296 51.048C363.872 50.088 364.16 49.352 364.16 48.84C364.224 48.776 365.472 47.4 367.904 44.712C369.44 43.048 371.008 42.216 372.608 42.216C372.928 41.896 373.536 41.704 374.432 41.64C375.392 41.576 376.064 41.352 376.448 40.968C377.472 40.904 378.08 40.872 378.272 40.872C379.744 40.872 382.304 41.64 385.952 43.176C386.208 42.536 386.656 41.64 387.296 40.488C387.68 40.36 388.256 40.2 389.024 40.008L390.176 40.2L390.752 39.912C391.072 40.552 391.232 41.288 391.232 42.12C391.232 42.44 391.2 42.92 391.136 43.56C391.072 44.136 391.04 44.584 391.04 44.904C391.04 45.544 391.136 46.152 391.328 46.728C391.264 47.048 391.232 47.4 391.232 47.784C391.232 48.104 391.264 48.616 391.328 49.32C391.456 50.024 391.52 50.536 391.52 50.856C391.52 51.176 391.456 51.592 391.328 52.104C389.28 52.616 388.192 52.872 388.064 52.872C388.064 52.872 387.84 52.84 387.392 52.776C386.816 50.984 386.208 49.16 385.568 47.304C384.672 45.64 383.072 44.808 380.768 44.808C377.952 44.808 375.904 45.352 374.624 46.44C373.856 47.08 373.248 48.168 372.8 49.704C372.416 51.176 372.032 52.072 371.648 52.392C371.712 52.84 371.744 53.064 371.744 53.064C371.744 53.768 371.52 54.504 371.072 55.272C371.392 55.976 371.552 57.128 371.552 58.728C371.552 60.264 371.744 61.32 372.128 61.896C372.32 63.944 373.056 65.672 374.336 67.08C375.616 68.488 377.28 69.192 379.328 69.192C382.336 69.192 384.384 68.232 385.472 66.312C386.24 64.072 387.04 61.864 387.872 59.688C388.32 59.688 388.928 59.624 389.696 59.496C390.528 59.368 391.136 59.304 391.52 59.304C391.584 59.88 391.616 60.168 391.616 60.168ZM406.112 98.28C402.592 98.984 398.656 99.336 394.304 99.336L393.152 98.76L393.056 98.472C394.848 98.28 396.032 98.152 396.608 98.088C398.016 97.832 399.104 97.48 399.872 97.032C399.424 95.688 396.288 95.016 390.464 95.016C382.464 95.016 377.472 95.752 375.488 97.224V97.704C376.512 98.536 378.272 99.016 380.768 99.144C380 99.08 381.888 99.048 386.432 99.048V99.24L387.392 99.816C386.432 100.008 384.704 100.104 382.208 100.104C376.96 100.104 373.088 99.08 370.592 97.032L370.4 96.264C371.68 94.6 375.168 93.64 380.864 93.384C384.832 93.256 388.8 93.128 392.768 93C392.768 93 394.208 93.16 397.088 93.48C399.2 93.672 400.48 93.992 400.928 94.44L401.6 94.632C401.984 94.888 402.432 95.08 402.944 95.208L403.328 95.784L403.232 96.36L402.176 97.512C402.944 97.576 403.936 97.608 405.152 97.608L405.824 98.28H406.112Z" fill="black"/>
<path d="M611 64.5C611 99.0178 583.018 127 548.5 127C513.982 127 486 99.0178 486 64.5C486 29.9822 513.982 2 548.5 2C583.018 2 611 29.9822 611 64.5Z" fill="#F2AD43"/>
<path d="M594.461 26.744C593.821 26.936 590.077 28.408 583.229 31.16C578.045 33.208 574.429 34.232 572.381 34.232C565.085 34.232 554.173 33.944 539.645 33.368C525.117 32.792 514.237 32.504 507.005 32.504C508.733 32.44 511.741 31.576 516.029 29.912C520.637 28.12 523.837 27.096 525.629 26.84C527.805 25.752 530.173 25.208 532.733 25.208C532.157 25.208 536.317 25.272 545.213 25.4L572.957 25.976C578.653 26.104 583.197 26.2 586.589 26.264C588.509 26.264 591.133 26.424 594.461 26.744ZM595.709 31.64C595.709 42.072 595.485 56.76 595.037 75.704C594.909 81.464 594.589 87.864 594.077 94.904L575.741 106.712C575.101 106.008 574.781 104.472 574.781 102.104V101.336C574.781 94.104 575.005 79.64 575.453 57.944C575.453 53.336 575.549 46.456 575.741 37.304C575.805 35.704 576.349 34.872 577.373 34.808L577.949 34.232L592.541 28.568H593.405C593.981 28.184 594.589 27.992 595.229 27.992C595.421 27.992 595.581 28.024 595.709 28.088C595.645 28.344 595.613 28.728 595.613 29.24C595.613 29.496 595.645 29.88 595.709 30.392C595.709 30.968 595.709 31.384 595.709 31.64ZM574.493 43.064L574.013 95.576C574.013 99.096 573.981 101.048 573.917 101.432C573.853 103.672 573.597 105.592 573.149 107.192C572.893 107 572.573 106.904 572.189 106.904C571.933 106.904 571.581 106.936 571.133 107C570.749 107.064 570.461 107.096 570.269 107.096C566.301 107.096 560.381 106.744 552.509 106.04C544.701 105.336 538.813 104.984 534.845 104.984C533.821 104.984 532.317 104.824 530.333 104.504C528.349 104.248 526.877 104.12 525.917 104.12C525.149 104.12 524.445 104.184 523.805 104.312C523.677 104.184 518.493 103.864 508.253 103.352C508.061 102.84 507.709 102.136 507.197 101.24L506.333 36.056C506.653 35.352 507.325 34.488 508.349 33.464C509.949 33.72 511.901 33.848 514.205 33.848C514.909 33.848 515.997 33.848 517.469 33.848C518.941 33.784 520.061 33.752 520.829 33.752C521.597 33.752 522.653 33.848 523.997 34.04C525.405 34.168 526.429 34.232 527.069 34.232L572.573 35.384C573.789 35.384 574.397 36.44 574.397 38.552C574.397 38.872 574.365 39.384 574.301 40.088C574.301 40.728 574.301 41.208 574.301 41.528C574.301 42.232 574.365 42.744 574.493 43.064ZM585.341 27.416C584.125 27.096 581.597 26.904 577.757 26.84C575.901 26.776 569.117 26.584 557.405 26.264C549.149 26.072 542.365 25.976 537.053 25.976C534.749 25.976 531.325 26.744 526.781 28.28C523.389 29.432 519.965 30.616 516.509 31.832C520.861 31.896 529.213 32.184 541.565 32.696C552.061 33.08 560.413 33.272 566.621 33.272C567.581 33.272 568.797 33.208 570.269 33.08L570.173 32.984H570.269L570.365 32.888H570.941C570.941 32.888 573.373 32.056 578.237 30.392C581.181 29.432 583.549 28.44 585.341 27.416ZM593.117 35.288L580.637 40.088C580.381 40.472 580.029 40.728 579.581 40.856C579.133 40.984 578.717 41.24 578.333 41.624C577.565 42.456 577.181 60.248 577.181 95C577.181 95.896 577.373 96.728 577.757 97.496L578.429 97.688C580.733 96.92 583.549 95.448 586.877 93.272C590.909 90.584 592.925 88.408 592.925 86.744L593.117 35.288ZM567.773 52.568C567.517 51.992 567.389 51.288 567.389 50.456C567.389 50.072 567.421 49.464 567.485 48.632C567.613 47.736 567.677 47.064 567.677 46.616C567.677 44.632 566.845 43.352 565.181 42.776L564.989 43.064L564.413 42.968L563.933 42.488C537.821 41.656 522.781 41.24 518.813 41.24C517.405 41.24 516.285 41.272 515.453 41.336C513.917 42.552 513.149 45.304 513.149 49.592C513.149 58.36 513.277 71.32 513.533 88.472C513.597 92.952 514.397 95.8 515.933 97.016L565.757 99.512L567.101 97.592L567.773 52.568ZM572.189 27.992L571.421 28.088C571.101 28.408 570.141 28.76 568.541 29.144L568.349 29.432C567.517 29.752 566.269 30.136 564.605 30.584L564.509 30.776C563.997 30.968 563.229 31.192 562.205 31.448L561.917 31.64C560.509 31.64 558.397 31.608 555.581 31.544C552.829 31.416 550.749 31.352 549.341 31.352L550.301 31.256L550.493 30.968C551.069 30.84 551.805 30.776 552.701 30.776C553.213 30.776 554.013 30.808 555.101 30.872C556.189 30.936 556.989 30.968 557.501 30.968C559.677 30.968 560.925 30.744 561.245 30.296C558.109 29.784 554.077 29.528 549.149 29.528C547.997 29.528 546.301 29.528 544.061 29.528C541.821 29.592 540.125 29.624 538.973 29.624C538.333 29.624 537.405 29.72 536.189 29.912C534.973 30.104 534.077 30.2 533.501 30.2C533.309 30.2 532.637 30.168 531.485 30.104L531.965 30.008C532.157 29.88 533.629 29.4 536.381 28.568V28.472C537.085 28.152 538.013 27.992 539.165 27.992C539.485 27.992 539.933 27.992 540.509 27.992C541.149 28.056 541.629 28.088 541.949 28.088L541.181 28.376V28.568C543.421 28.952 546.429 29.144 550.205 29.144H564.605C564.669 29.08 564.701 28.984 564.701 28.856C564.701 28.408 563.165 28.184 560.093 28.184C559.325 28.184 558.749 28.152 558.365 28.088L559.229 27.992L559.517 27.704C560.925 27.704 563.037 27.768 565.853 27.896C568.669 27.96 570.781 27.992 572.189 27.992ZM590.813 54.2C590.813 54.2 590.813 55.704 590.813 58.712C590.813 60.376 590.749 62.872 590.621 66.2C590.493 69.528 590.429 72.024 590.429 73.688L589.277 73.784C589.341 73.4 589.373 72.824 589.373 72.056C589.373 70.264 589.053 69.368 588.413 69.368C588.029 69.368 587.389 69.72 586.493 70.424C585.661 71.128 584.765 71.576 583.805 71.768C582.973 72.28 582.429 72.92 582.173 73.688C582.237 74.776 582.301 75.864 582.365 76.952C582.493 78.424 582.813 79.416 583.325 79.928L583.997 79.544H584.381C584.445 79.544 584.541 79.576 584.669 79.64V80.216C584.669 80.92 584.669 81.624 584.669 82.328C584.605 83.288 584.413 83.928 584.093 84.248L583.037 84.632L582.461 85.208H582.077C581.821 85.336 581.501 85.592 581.117 85.976H580.733C580.989 84.376 581.117 82.552 581.117 80.504C581.117 79.672 581.085 78.392 581.021 76.664C580.957 74.936 580.925 73.624 580.925 72.728C580.925 71 580.989 68.44 581.117 65.048C581.245 61.592 581.309 59 581.309 57.272C581.309 55.288 581.245 53.464 581.117 51.8C581.437 51.48 581.949 51.032 582.653 50.456L583.133 50.36L583.517 50.072L584.477 50.36L584.957 49.784C584.829 50.232 584.765 50.776 584.765 51.416C584.765 51.672 584.797 52.12 584.861 52.76C584.861 53.272 584.861 53.688 584.861 54.008V54.488H584.381C582.909 57.176 582.173 59.48 582.173 61.4C582.173 61.848 582.237 62.456 582.365 63.224L582.653 63.32L583.229 62.744L583.421 62.936L587.933 60.44H588.413L588.797 60.248C589.309 59.352 589.565 57.464 589.565 54.584H590.141C590.397 54.328 590.621 54.2 590.813 54.2ZM556.925 59.768C556.925 60.152 556.861 60.664 556.733 61.304C556.797 61.496 556.829 61.816 556.829 62.264C556.829 62.712 556.701 63.384 556.445 64.28C556.189 65.112 556.061 65.752 556.061 66.2C556.061 66.712 556.189 67.192 556.445 67.64C556.189 67.256 555.805 67.064 555.293 67.064C554.909 67.064 554.333 67.16 553.565 67.352C552.861 67.48 552.317 67.544 551.933 67.544C551.805 67.416 551.741 67.192 551.741 66.872C551.741 66.488 551.869 66.04 552.125 65.528C550.717 60.792 548.509 58.424 545.501 58.424C545.245 58.424 544.925 58.488 544.541 58.616C544.413 58.872 544.349 59.192 544.349 59.576C544.349 59.768 544.381 60.088 544.445 60.536C544.509 60.984 544.541 61.304 544.541 61.496C544.541 61.944 544.445 62.296 544.253 62.552L544.541 78.584C544.541 78.904 544.509 79.384 544.445 80.024C544.381 80.664 544.349 81.144 544.349 81.464C544.349 82.616 544.765 83.512 545.597 84.152C546.621 84.472 547.933 84.632 549.533 84.632C549.405 85.144 549.341 86.616 549.341 89.048C549.021 88.92 548.669 88.856 548.285 88.856C547.965 88.856 547.517 88.92 546.941 89.048C546.429 89.112 546.013 89.144 545.693 89.144C545.117 89.144 544.573 88.952 544.061 88.568L535.901 87.992C535.581 88.312 535.069 88.472 534.365 88.472C533.917 88.472 533.213 88.376 532.253 88.184C531.357 87.928 530.685 87.8 530.237 87.8L530.717 83.672C531.933 83.736 532.605 83.768 532.733 83.768C534.717 83.768 535.709 81.976 535.709 78.392C535.709 77.368 535.581 75.896 535.325 73.976C535.133 71.992 535.037 70.488 535.037 69.464C535.037 68.632 535.101 67.448 535.229 65.912C535.421 64.312 535.517 63.096 535.517 62.264C535.517 60.792 535.229 59.384 534.653 58.04C530.877 58.872 528.637 60.248 527.933 62.168C527.933 62.424 527.933 62.808 527.933 63.32C527.933 63.832 527.933 64.216 527.933 64.472C527.933 65.368 527.773 66.2 527.453 66.968C526.813 66.648 526.141 66.488 525.437 66.488C524.861 66.488 524.317 66.584 523.805 66.776C523.485 66.136 523.325 65.336 523.325 64.376C523.325 64.056 523.357 63.544 523.421 62.84C523.485 62.072 523.517 61.496 523.517 61.112C523.517 60.472 523.421 59.8 523.229 59.096C523.421 58.712 523.517 58.264 523.517 57.752C523.517 57.368 523.453 56.824 523.325 56.12C523.197 55.416 523.133 54.872 523.133 54.488C523.133 53.976 523.229 53.528 523.421 53.144C523.933 53.4 524.509 53.528 525.149 53.528C525.469 53.528 525.949 53.496 526.589 53.432C527.293 53.304 527.805 53.24 528.125 53.24C528.765 53.24 529.341 53.368 529.853 53.624C530.365 53.496 530.781 53.432 531.101 53.432C531.485 53.432 532.093 53.496 532.925 53.624C533.757 53.752 534.365 53.816 534.749 53.816C535.261 53.816 535.709 53.752 536.093 53.624C536.605 53.816 537.213 53.912 537.917 53.912C538.173 53.912 538.589 53.88 539.165 53.816C539.805 53.752 540.253 53.72 540.509 53.72C541.213 53.72 541.821 53.816 542.333 54.008C542.845 53.88 543.261 53.816 543.581 53.816C543.965 53.816 544.541 53.88 545.309 54.008C546.077 54.136 546.653 54.2 547.037 54.2C547.485 54.2 547.901 54.136 548.285 54.008C548.861 54.2 549.949 54.232 551.549 54.104C552.893 54.04 553.917 54.2 554.621 54.584L556.157 54.296C556.157 54.936 556.285 55.864 556.541 57.08C556.797 58.232 556.925 59.128 556.925 59.768Z" fill="black"/>
<path d="M773 64.5C773 99.0178 745.018 127 710.5 127C675.982 127 648 99.0178 648 64.5C648 29.9822 675.982 2 710.5 2C745.018 2 773 29.9822 773 64.5Z" fill="#F2AD43"/>
<path d="M752.36 37.784C752.36 44.248 752.008 52.248 751.304 61.784C750.664 69.72 750.056 77.688 749.48 85.688C749.352 87.416 749.256 89.144 749.192 90.872C749 92.856 748.648 94.552 748.136 95.96L747.464 95.672L745.928 95.768C745.288 95.448 734.632 93.784 713.96 90.776C711.848 90.264 708.616 89.72 704.264 89.144C704.136 89.08 703.912 88.984 703.592 88.856C702.632 88.792 701.192 88.632 699.272 88.376C697.16 87.928 693.96 87.448 689.672 86.936C689.48 86.488 689.192 85.816 688.808 84.92L694.376 27.032C694.632 26.52 695.24 25.88 696.2 25.112C696.776 25.304 700.936 26.072 708.68 27.416L738.824 32.792C741.704 33.368 744.424 33.912 746.984 34.424C747.944 34.552 749.288 34.84 751.016 35.288C751.912 35.608 752.36 36.44 752.36 37.784ZM693.608 25.688C693.544 26.008 693.416 27.064 693.224 28.856L690.44 57.656C689.928 62.328 689.384 67.032 688.808 71.768C688.168 77.336 687.88 82.04 687.944 85.88L687.176 87.32L670.088 98.072C669.768 97.56 669.608 97.016 669.608 96.44C669.608 94.264 669.832 91.512 670.28 88.184C670.984 83.32 671.368 80.6 671.432 80.024L675.368 42.008C675.496 41.048 675.752 40.408 676.136 40.088C676.776 39.576 677.192 39.16 677.384 38.84C680.072 36.472 682.76 34.072 685.448 31.64C689.352 28.248 692.072 26.264 693.608 25.688ZM747.752 97.208C734.056 103.864 726.92 107.192 726.344 107.192C725.064 107.192 720.712 106.68 713.288 105.656C700.808 103.928 689.128 102.168 678.248 100.376C676.52 100.12 673.992 99.64 670.664 98.936L670.856 98.552L671.528 98.168L671.72 97.88C674.6 96.024 677.512 94.136 680.456 92.216C684.68 89.592 687.528 88.088 689 87.704C689.384 87.832 690.44 87.992 692.168 88.184C703.816 89.656 717.768 91.832 734.024 94.712C737.032 95.096 741.544 95.768 747.56 96.728L747.752 97.208ZM746.504 43.352C746.504 42.072 745.928 41.08 744.776 40.376C744.584 40.504 744.392 40.536 744.2 40.472L744.008 40.376L743.624 39.896C737.352 38.744 727.976 37.048 715.496 34.808C713.32 34.36 711.112 33.912 708.872 33.464C706.248 32.952 704.04 32.696 702.248 32.696C700.648 32.696 699.624 35.096 699.176 39.896L696.104 73.688C695.976 75.096 695.912 75.896 695.912 76.088C695.912 78.84 696.488 80.728 697.64 81.752L742.376 88.568L743.528 86.84L746.312 48.632C746.12 48.184 746.024 47.704 746.024 47.192C746.024 46.744 746.088 46.104 746.216 45.272C746.408 44.44 746.504 43.8 746.504 43.352ZM691.016 33.752L690.536 33.08C687.848 35.128 685.192 37.176 682.568 39.224C678.984 42.168 676.968 44.568 676.52 46.424C673.704 58.072 672.296 72.056 672.296 88.376C672.296 89.144 672.328 89.72 672.392 90.104L672.872 90.296C674.92 89.592 677.576 88.088 680.84 85.784C684.616 83.096 686.568 80.984 686.696 79.448L691.016 33.752ZM738.824 97.208C737.352 96.568 729.768 95.224 716.072 93.176C702.376 91.128 694.376 90.104 692.072 90.104C692.264 90.104 688.136 92.504 679.688 97.304L679.4 97.688L678.536 98.168L678.248 98.552C679.464 99.064 686.44 100.312 699.176 102.296C711.976 104.28 719.368 105.272 721.352 105.272C723.016 105.272 725.896 104.248 729.992 102.2C732.872 100.728 735.752 99.224 738.632 97.688L738.824 97.208ZM738.44 51.224C738.44 51.928 738.376 52.472 738.248 52.856C737.608 52.536 737 52.376 736.424 52.376C735.976 52.376 735.176 52.728 734.024 53.432C733.704 54.392 733.544 55.512 733.544 56.792C733.544 57.304 733.576 58.072 733.64 59.096C733.704 60.12 733.736 60.888 733.736 61.4C733.736 62.168 733.544 63.384 733.16 65.048C732.84 66.648 732.68 67.832 732.68 68.6C732.68 68.92 732.744 69.208 732.872 69.464C732.744 69.528 732.68 69.624 732.68 69.752C732.68 69.88 732.744 70.008 732.872 70.136C732.744 72.248 732.104 73.752 730.952 74.648C729.544 75.608 728.168 76.536 726.824 77.432C726.632 77.496 726.28 77.528 725.768 77.528C725.192 77.528 724.232 77.4 722.888 77.144C721.608 76.888 720.616 76.792 719.912 76.856C719.528 76.6 718.856 76.44 717.896 76.376C716.744 76.312 715.88 76.152 715.304 75.896C712.104 74.488 710.088 71.736 709.256 67.64L709.64 66.872C709.64 66.552 709.544 66.136 709.352 65.624C709.224 65.048 709.16 64.632 709.16 64.376C709.288 63.992 709.352 63.544 709.352 63.032C709.352 62.84 709.32 62.488 709.256 61.976C709.256 61.464 709.256 61.08 709.256 60.824C709.256 59.928 709.448 59.224 709.832 58.712C709.832 58.2 709.928 57.432 710.12 56.408C710.376 55.384 710.504 54.616 710.504 54.104C710.504 53.72 710.376 53.208 710.12 52.568C710.12 52.248 710.152 51.8 710.216 51.224C710.28 50.584 710.312 50.104 710.312 49.784C710.312 48.184 709.192 47.256 706.952 47L706.28 47.192V45.368C706.28 44.792 706.408 44.088 706.664 43.256C707.176 43.576 707.976 43.768 709.064 43.832C710.152 43.896 710.952 44.088 711.464 44.408C712.936 44.408 714.792 44.664 717.032 45.176C717.416 45.304 718.024 45.464 718.856 45.656C718.856 45.656 719.08 45.656 719.528 45.656C719.976 45.656 720.584 45.784 721.352 46.04C722.184 46.296 722.824 46.424 723.272 46.424L722.888 50.168C721.992 49.784 721.256 49.592 720.68 49.592C719.912 49.592 719.176 49.848 718.472 50.36L717.608 62.072C717.672 62.264 717.704 62.52 717.704 62.84C717.704 63.352 717.64 64.12 717.512 65.144C717.384 66.104 717.32 66.84 717.32 67.352C717.32 71.448 719.4 73.496 723.56 73.496C723.816 73.176 724.2 73.08 724.712 73.208L725.768 72.92C727.624 71.064 728.488 69.656 728.36 68.696C728.616 68.376 728.744 67.928 728.744 67.352C728.744 67.096 728.712 66.744 728.648 66.296C728.584 65.848 728.552 65.496 728.552 65.24C728.552 64.664 728.68 64.152 728.936 63.704C728.68 63.192 728.552 62.776 728.552 62.456C728.552 62.072 728.648 61.56 728.84 60.92C729.096 60.216 729.224 59.704 729.224 59.384C729.224 59.064 729.192 58.712 729.128 58.328C729.512 57.944 729.704 57.4 729.704 56.696C729.704 56.44 729.672 56.056 729.608 55.544C729.544 55.032 729.512 54.648 729.512 54.392C729.512 53.944 729.576 53.56 729.704 53.24C729.704 52.152 729.416 51.448 728.84 51.128C728.52 50.936 727.752 50.84 726.536 50.84L725.768 50.552V48.728C725.768 47.896 725.8 47.288 725.864 46.904C728.68 47.224 732.84 47.864 738.344 48.824C738.344 49.08 738.376 49.464 738.44 49.976C738.44 50.552 738.44 50.968 738.44 51.224ZM686.696 52.568C686.696 53.272 686.632 54.36 686.504 55.832C686.376 57.304 686.312 58.392 686.312 59.096C685.928 60.184 685.576 62.36 685.256 65.624C685.064 68.248 684.296 70.424 682.952 72.152H682.664C682.536 72.28 682.312 72.664 681.992 73.304L681.416 73.592C681.288 73.784 681.032 74.072 680.648 74.456L680.264 74.36C679.752 74.552 679.144 75.032 678.44 75.8C677.096 76.504 676.488 78.232 676.616 80.984L676.04 81.656L675.464 81.752C675.976 78.04 676.584 72.44 677.288 64.952L678.344 64.184C678.344 64.504 678.312 64.984 678.248 65.624C678.184 66.2 678.152 66.648 678.152 66.968V68.312L681.608 65.912C681.8 65.464 682.248 65.144 682.952 64.952L683.336 64.376L683.816 64.088C684.136 62.808 684.488 61.464 684.872 60.056C685.256 58.584 685.448 57.304 685.448 56.216C685.448 55.064 685.256 54.136 684.872 53.432L684.584 53.24L684.2 53.432H683.912L683.048 54.296L682.664 54.392L682.28 55.16L681.512 55.256L681.128 55.832L680.84 55.736C680.584 56.056 680.168 56.408 679.592 56.792C679.464 57.112 679.24 58.104 678.92 59.768C678.728 61.048 678.248 61.912 677.48 62.36L678.728 49.976C678.728 49.656 679.048 49.272 679.688 48.824H679.88C679.752 49.72 679.688 50.392 679.688 50.84C679.688 51.608 679.752 52.184 679.88 52.568C680.392 52.44 680.968 51.992 681.608 51.224C682.248 50.456 682.792 50.04 683.24 49.976L683.624 49.592L684.2 49.4L684.68 48.824L685.736 48.248C686.376 49.144 686.696 50.584 686.696 52.568ZM722.696 98.072L722.12 98.168L722.024 98.744L721.448 98.936C721.32 99.064 720.2 99.544 718.088 100.376L717.992 100.76L717.032 101.24V101.528C717.544 101.784 718.664 102.008 720.392 102.2L720.296 102.392L719.144 102.872C712.424 101.272 707.112 100.44 703.208 100.376L704.456 99.8C706.056 100.12 707.56 100.28 708.968 100.28C710.12 99.576 711.88 98.616 714.248 97.4L714.92 96.728C713.576 95.704 711.304 95.192 708.104 95.192C705.928 95.192 704.136 95.384 702.728 95.768L702.248 96.344L701.576 96.44V96.824L700.136 97.208L700.04 97.496L699.176 97.592C698.984 97.784 698.824 97.976 698.696 98.168L698.12 98.36L698.504 98.936C699.208 98.936 700.232 99.064 701.576 99.32L700.616 99.992C697.8 99.736 693.64 99.128 688.136 98.168L688.424 97.784L689.288 97.496C690.568 97.752 691.56 97.88 692.264 97.88C693.16 97.88 694.248 97.528 695.528 96.824C697.256 95.864 698.28 95.32 698.6 95.192L698.792 94.904H699.08V94.712C699.72 94.328 701.256 94.136 703.688 94.136C706.504 94.136 709.832 94.392 713.672 94.904C718.6 95.608 721.608 96.472 722.696 97.496V98.072Z" fill="black"/>
<path d="M935 62.5C935 97.0178 907.018 125 872.5 125C837.982 125 810 97.0178 810 62.5C810 27.9822 837.982 0 872.5 0C907.018 0 935 27.9822 935 62.5Z" fill="#F2AD43"/>
<path d="M917.348 38.664C916.9 38.92 911.3 39.048 900.548 39.048C893.892 39.048 884.516 39.144 872.42 39.336C863.716 39.528 859.236 39.624 858.98 39.624C857.252 39.624 853.604 37.672 848.036 33.768C844.324 31.08 840.644 28.392 836.996 25.704C836.228 25.192 835.172 24.328 833.828 23.112C839.588 23.112 848.26 23.08 859.844 23.016C871.428 22.888 880.132 22.824 885.956 22.824C889.156 22.824 891.14 23.048 891.908 23.496L917.348 38.28V38.664ZM918.404 41.544L911.876 99.72C911.812 100.424 911.172 101.192 909.956 102.024C908.42 101.96 907.46 101.928 907.076 101.928C905.924 101.928 904.356 102.056 902.372 102.312C900.004 102.568 898.436 102.728 897.668 102.792C891.012 103.112 880.996 103.624 867.62 104.328C859.044 104.776 854.276 105 853.316 105C852.356 105 851.876 104.392 851.876 103.176C851.876 101.512 851.94 99.976 852.068 98.568L856.388 51.432C856.58 49 857.124 45.352 858.02 40.488C858.404 40.552 858.788 40.584 859.172 40.584C862.692 40.584 867.94 40.52 874.916 40.392C881.956 40.264 887.236 40.2 890.756 40.2C891.524 40.2 892.644 40.232 894.116 40.296C895.652 40.296 896.804 40.296 897.572 40.296C899.94 40.296 901.924 40.136 903.524 39.816L904.196 40.008C904.644 39.88 905.092 39.784 905.54 39.72C906.116 39.72 906.948 39.784 908.036 39.912C909.188 39.976 910.052 40.008 910.628 40.008C911.332 40.008 912.388 39.944 913.796 39.816C915.268 39.688 916.356 39.624 917.06 39.624H917.732L918.404 41.544ZM856.004 42.408C856.004 42.856 855.876 44.488 855.62 47.304L851.3 94.536C851.108 96.84 850.692 100.296 850.052 104.904L849.86 104.328L849.188 104.04C847.652 102.376 844.836 99.752 840.74 96.168C840.1 95.528 839.076 94.6 837.668 93.384C837.476 93.256 837.156 93.064 836.708 92.808C836.004 91.912 834.724 90.76 832.868 89.352L832.676 88.872L832.1 88.68L827.684 84.648C827.62 84.328 827.588 83.88 827.588 83.304C827.588 81.064 827.844 76.232 828.356 68.808C829.38 52.68 830.436 40.136 831.524 31.176C831.652 29.576 832.036 27.272 832.676 24.264L832.964 24.072C835.14 26.184 840.772 30.216 849.86 36.168C851.716 37.384 853.604 38.632 855.524 39.912C855.844 40.296 856.004 41.128 856.004 42.408ZM907.844 36.744C906.756 35.336 903.236 32.968 897.284 29.64C891.396 26.248 887.652 24.552 886.052 24.552H849.284C847.812 24.488 845.604 24.52 842.66 24.648L842.372 24.84L842.18 25.224C845.572 27.656 848.964 30.088 852.356 32.52C857.156 35.784 860.644 37.512 862.82 37.704C863.46 37.512 866.244 37.416 871.172 37.416C873.604 37.416 877.284 37.416 882.212 37.416C887.204 37.48 890.916 37.512 893.348 37.512C902.436 37.512 907.268 37.256 907.844 36.744ZM911.396 50.952C911.396 48.52 910.884 46.92 909.86 46.152C894.884 46.28 879.652 46.632 864.164 47.208C864.036 47.336 863.62 47.976 862.916 49.128L858.884 89.736C859.012 90.376 859.076 90.76 859.076 90.888C859.076 91.4 858.98 92.168 858.788 93.192C858.596 94.216 858.5 94.984 858.5 95.496C858.5 96.968 859.108 97.864 860.324 98.184L860.612 97.896L860.9 97.8L861.476 98.28L904.484 95.88C906.02 94.536 907.012 91.912 907.46 88.008L911.204 53.736C911.332 52.584 911.396 51.656 911.396 50.952ZM852.932 48.456C852.932 46.984 852.708 45.768 852.26 44.808L852.164 45.096L851.78 44.232L834.788 32.328C833.892 33.416 832.9 40.616 831.812 53.928C830.852 65.768 830.372 73.896 830.372 78.312C830.372 79.4 830.5 80.296 830.756 81L847.748 95.976H848.132C848.644 94.632 849.22 91.048 849.86 85.224C850.372 78.312 851.236 67.976 852.452 54.216C852.772 50.888 852.932 48.968 852.932 48.456ZM896.996 33.96L896.804 34.344C895.076 34.728 893.892 34.888 893.252 34.824L892.964 35.016C890.788 34.824 888.676 34.6 886.628 34.344C884.58 34.088 882.5 33.32 880.388 32.04L880.484 31.944L880.004 31.656C877.7 31.272 875.94 31.08 874.724 31.08C873.7 31.08 872.676 31.176 871.652 31.368C872.804 32.712 874.404 33.48 876.452 33.672C878.82 33.864 880.42 34.216 881.252 34.728L881.348 34.824C880.516 35.016 879.396 35.112 877.988 35.112C876.452 35.112 874.148 35.112 871.076 35.112C868.004 35.048 865.7 35.016 864.164 35.016C863.716 34.888 863.172 34.536 862.532 33.96C862.468 33.96 863.46 33.96 865.508 33.96C866.02 33.96 866.372 33.864 866.564 33.672C866.308 33.416 865.86 33.16 865.22 32.904L865.028 32.616C864.26 32.232 863.204 31.496 861.86 30.408C861.348 30.088 860.516 29.608 859.364 28.968L859.268 28.776C858.628 28.392 857.38 28.2 855.524 28.2C853.924 28.136 852.836 27.752 852.26 27.048C853.028 27.048 854.18 27.048 855.716 27.048C857.252 26.984 858.372 26.952 859.076 26.952H873.476C881.028 26.952 885.028 27.912 885.476 29.832C884.964 29.832 884.228 29.96 883.268 30.216C882.372 30.408 881.668 30.504 881.156 30.504C882.756 30.76 884.356 30.984 885.956 31.176C887.94 31.496 889.412 32.104 890.372 33C890.884 33.448 891.684 33.672 892.772 33.672C893.092 33.672 893.508 33.608 894.02 33.48L893.828 33.192C893.508 33.064 893.092 32.84 892.58 32.52H893.348C894.948 32.52 896.1 32.84 896.804 33.48L896.996 33.96ZM902.084 78.408C902.084 81.352 901.38 83.656 899.972 85.32C899.524 85.384 898.788 85.864 897.764 86.76C896.996 87.4 896.196 87.624 895.364 87.432L894.5 88.104H893.828C893.444 88.104 892.868 87.944 892.1 87.624C891.396 87.304 890.82 87.144 890.372 87.144C888.708 86.184 887.876 84.552 887.876 82.248C887.876 81.48 888.004 80.36 888.26 78.888C888.58 77.352 888.74 76.2 888.74 75.432C888.74 74.728 888.42 74.152 887.78 73.704C887.14 73.256 886.468 73.032 885.764 73.032C885.124 73.032 884.324 73.16 883.364 73.416C882.212 73.672 881.444 73.832 881.06 73.896C880.228 76.264 879.812 78.6 879.812 80.904C879.812 82.696 880.196 83.592 880.964 83.592C881.22 83.592 881.604 83.56 882.116 83.496C882.692 83.368 883.108 83.304 883.364 83.304C883.94 83.304 884.228 83.688 884.228 84.456C884.228 85.864 884.068 86.888 883.748 87.528C883.556 87.592 883.268 87.624 882.884 87.624C879.236 87.624 877.124 87.528 876.548 87.336C876.164 87.4 875.268 87.56 873.86 87.816C872.708 88.008 871.78 88.104 871.076 88.104C870.436 88.104 869.828 88.04 869.252 87.912C868.164 88.104 867.588 88.2 867.524 88.2C867.268 88.2 866.948 88.136 866.564 88.008C866.5 86.984 866.468 86.408 866.468 86.28C866.468 85.448 866.628 84.712 866.948 84.072C867.14 84.008 867.364 83.976 867.62 83.976C867.812 83.976 868.1 84.008 868.484 84.072C868.932 84.136 869.252 84.168 869.444 84.168C870.788 84.168 871.524 83.496 871.652 82.152C871.844 79.976 871.972 78.792 872.036 78.6C872.036 78.408 872.004 78.12 871.94 77.736C871.94 77.352 871.94 77.064 871.94 76.872C871.94 76.04 872.068 74.792 872.324 73.128C872.644 71.464 872.804 70.216 872.804 69.384C872.804 69 872.868 68.264 872.996 67.176C873.188 66.088 873.252 65.256 873.188 64.68L873.476 64.008C873.476 63.944 873.476 63.848 873.476 63.72C873.476 63.592 873.476 63.496 873.476 63.432C873.476 63.688 873.38 63.144 873.188 61.8C872.868 61.224 872.26 60.936 871.364 60.936C870.276 60.872 869.604 60.712 869.348 60.456C869.156 60.2 869.06 59.88 869.06 59.496C869.06 59.176 869.22 58.376 869.54 57.096C871.844 56.52 874.756 56.232 878.276 56.232C879.236 56.232 880.836 56.264 883.076 56.328C885.124 56.456 886.724 56.488 887.876 56.424H889.604C889.988 56.232 890.436 56.136 890.948 56.136C891.652 56.136 892.612 56.36 893.828 56.808C896.068 57.64 897.444 58.312 897.956 58.824C898.788 59.592 899.204 61.032 899.204 63.144C899.204 64.488 898.788 66.056 897.956 67.848C896.74 68.68 894.788 69.608 892.1 70.632L892.388 71.016L892.772 71.208C895.332 71.464 896.612 73.128 896.612 76.2C896.612 77.032 896.388 78.856 895.94 81.672L896.132 82.344L896.804 82.728L896.996 83.016H897.572C898.724 83.016 899.428 81.416 899.684 78.216C900.196 78.216 900.996 78.28 902.084 78.408ZM849.284 53.928C849.284 54.632 849.156 55.816 848.9 57.48L848.516 57.192C848.324 56.744 848.068 56.424 847.748 56.232C847.236 56.36 846.948 57.096 846.884 58.44C846.82 60.104 846.724 61.032 846.596 61.224C846.596 63.464 846.5 65.32 846.308 66.792C846.18 67.304 846.052 68.104 845.924 69.192C845.924 69.32 845.924 69.544 845.924 69.864C845.988 70.184 846.02 70.408 846.02 70.536C846.02 71.368 845.892 72.584 845.636 74.184C845.444 75.72 845.348 76.904 845.348 77.736C845.348 78.44 845.572 79.112 846.02 79.752C846.468 80.328 846.692 81.064 846.692 81.96C846.692 82.216 846.692 82.568 846.692 83.016C846.628 83.464 846.596 83.816 846.596 84.072C845.7 83.752 844.228 82.6 842.18 80.616C840.132 78.632 838.788 77.608 838.148 77.544C836.292 75.112 835.364 72.36 835.364 69.288C835.364 68.008 835.62 66.024 836.132 63.336C836.196 63.336 836.772 63.048 837.86 62.472L838.532 62.568C838.468 61.864 838.18 60.84 837.668 59.496C837.156 58.152 836.9 57.096 836.9 56.328C836.9 55.624 836.996 54.568 837.188 53.16C837.38 51.688 837.476 50.6 837.476 49.896C837.476 49 837.316 48.36 836.996 47.976C836.292 48.104 835.94 49.512 835.94 52.2C835.748 51.752 835.46 51.432 835.076 51.24C835.076 48.616 835.428 46.44 836.132 44.712L836.612 44.52L836.996 43.944L837.572 43.656L838.052 44.136L838.34 43.848C838.852 43.848 839.332 44.68 839.78 46.344C840.292 47.944 840.548 49.096 840.548 49.8C840.548 50.824 840.484 52.392 840.356 54.504C840.228 56.616 840.164 58.216 840.164 59.304C840.164 61.224 841.06 62.472 842.852 63.048C843.428 60.552 843.716 57.864 843.716 54.984C843.716 54.216 843.588 53.544 843.332 52.968C842.564 52.584 842.18 52.008 842.18 51.24C842.18 50.024 842.308 48.936 842.564 47.976L842.852 48.072C843.044 48.456 843.684 49 844.772 49.704L845.348 50.664C845.988 50.856 846.948 51.464 848.228 52.488L848.804 52.68L849.284 53.352V53.928ZM877.508 29.928L877.124 29.352H877.22C876.836 28.456 874.724 28.008 870.884 28.008H869.252C868.356 28.008 867.492 28.04 866.66 28.104L867.812 28.872L867.908 29.16C868.292 29.288 868.804 29.576 869.444 30.024C870.596 30.152 871.46 30.216 872.036 30.216C875.236 30.216 877.06 30.12 877.508 29.928ZM891.044 63.432C890.148 61.384 888.676 60.36 886.628 60.36C885.668 60.36 884.228 60.616 882.308 61.128L882.02 64.2C881.636 64.584 881.444 65.32 881.444 66.408C881.444 67.88 881.412 68.712 881.348 68.904C882.692 68.84 884.676 68.936 887.3 69.192C888.58 68.808 889.188 68.616 889.124 68.616L889.604 68.328C890.116 67.56 890.34 66.856 890.276 66.216L890.564 66.024C890.884 65.064 891.044 64.2 891.044 63.432ZM842.564 68.04C842.436 67.848 841.668 67.048 840.26 65.64C840.068 65.64 839.812 65.608 839.492 65.544C839.428 65.608 839.364 65.64 839.3 65.64C839.044 66.472 838.948 67.144 839.012 67.656H838.82C838.692 68.936 838.628 69.928 838.628 70.632C838.628 73.064 839.684 74.728 841.796 75.624C841.924 72.68 842.18 70.152 842.564 68.04Z" fill="black"/>
<path d="M1097 62.5C1097 97.0178 1069.02 125 1034.5 125C999.982 125 972 97.0178 972 62.5C972 27.9822 999.982 0 1034.5 0C1069.02 0 1097 27.9822 1097 62.5Z" fill="#F2AD43"/>
<path d="M1074.81 24.392C1073.66 24.904 1070.49 27.144 1065.3 31.112C1060.76 34.568 1057.78 36.296 1056.38 36.296C1055.48 36.296 1053.66 36.168 1050.9 35.912L1005.02 31.688C1002.78 31.624 999.448 31.272 995.032 30.632L995.512 30.536C996.088 29.896 999.32 28.04 1005.21 24.968C1012.38 21.256 1016.09 19.336 1016.34 19.208C1020.5 19.208 1030.68 19.88 1046.87 21.224C1064.02 22.632 1073.34 23.688 1074.81 24.392ZM1075.96 30.632C1075.96 29.928 1075.83 34.312 1075.58 43.784L1074.52 82.856C1074.52 83.944 1073.94 85.032 1072.79 86.12L1060.41 98.312C1059.83 98.888 1058.84 99.656 1057.43 100.616C1057.5 100.36 1057.53 100.008 1057.53 99.56C1057.53 99.304 1057.5 98.952 1057.43 98.504C1057.43 97.992 1057.43 97.608 1057.43 97.352C1057.43 96.712 1057.56 90.6 1057.82 79.016C1058.2 62.504 1058.39 49.704 1058.39 40.616C1058.39 39.656 1058.62 38.44 1059.06 36.968L1075.48 25.352C1075.8 25.864 1075.96 27.624 1075.96 30.632ZM1057.24 42.44C1057.24 42.184 1057.24 42.856 1057.24 44.456L1056.47 91.016C1056.47 93.32 1056.18 96.712 1055.61 101.192C1054.58 100.808 1049.08 100.104 1039.1 99.08C1029.11 98.056 1023.16 97.544 1021.24 97.544C1020.15 97.544 1018.42 97.32 1016.06 96.872C1013.69 96.424 1011.86 96.232 1010.58 96.296C1009.82 96.04 1007.48 95.72 1003.58 95.336C1000.06 95.016 997.56 94.856 996.088 94.856L995.224 92.84L994.456 34.088C994.904 33 995.48 32.264 996.184 31.88C997.912 32.264 1000.09 32.52 1002.71 32.648C1004.95 32.776 1007.16 32.904 1009.34 33.032C1018.62 33.8 1032.54 35.08 1051.1 36.872C1052.06 37 1053.53 37.192 1055.51 37.448C1056.66 37.704 1057.24 39.368 1057.24 42.44ZM1066.65 25.064C1065.5 24.68 1063.19 24.328 1059.74 24.008L1027.58 21.224C1024.63 20.968 1022.87 20.84 1022.3 20.84C1021.72 20.84 1020.86 20.904 1019.7 21.032L1003.86 29.96C1004.18 30.088 1004.63 30.216 1005.21 30.344L1044.28 33.896C1047.8 34.216 1049.91 34.376 1050.62 34.376C1051.9 34.376 1052.82 34.28 1053.4 34.088H1053.3C1053.56 34.088 1057.98 31.176 1066.55 25.352L1066.65 25.064ZM1074.23 38.984C1074.23 36.168 1074.07 34.344 1073.75 33.512L1073.27 33.32C1071.1 34.216 1068.54 35.848 1065.59 38.216C1062.01 41.032 1060.22 43.272 1060.22 44.936L1059.35 92.168L1059.93 92.744L1070.78 82.568C1070.9 82.248 1071.29 81.832 1071.93 81.32C1072.38 81 1072.73 80.04 1072.98 78.44C1072.98 78.44 1072.98 78.376 1072.98 78.248C1072.98 73.896 1073.18 67.368 1073.56 58.664C1074.01 49.896 1074.23 43.336 1074.23 38.984ZM1051 52.52C1051 52.328 1050.94 52.04 1050.81 51.656C1050.74 51.272 1050.71 50.952 1050.71 50.696C1050.71 50.312 1050.74 49.736 1050.81 48.968C1050.94 48.136 1051 47.528 1051 47.144C1051 45.352 1050.26 44.168 1048.79 43.592L1048.6 43.88H1048.22L1047.64 43.304C1045.08 43.048 1038.87 42.184 1029.02 40.712C1021.4 39.496 1015.19 38.888 1010.39 38.888C1007.83 38.888 1005.34 39.08 1002.9 39.464C1001.43 40.36 1000.7 42.824 1000.7 46.856C1000.7 46.984 1000.82 58.6 1001.08 81.704C1001.14 85.608 1001.91 88.2 1003.38 89.48L1049.08 94.088L1050.23 92.36L1051 52.52ZM1055.22 25.544C1054.84 25.736 1054.36 26.056 1053.78 26.504L1053.69 26.792C1053.18 27.112 1052.38 27.496 1051.29 27.944C1051.22 28.2 1050.9 28.488 1050.33 28.808V29.096C1049.82 29.352 1048.98 29.704 1047.83 30.152L1046.2 31.592C1041.08 31.592 1037.18 31.24 1034.49 30.536L1035.93 29.864C1036.44 29.864 1037.24 29.896 1038.33 29.96C1039.42 29.96 1040.22 29.96 1040.73 29.96C1043.29 29.96 1044.92 29.672 1045.62 29.096L1045.53 28.808L1047.54 27.848C1045.3 27.4 1042.78 27.176 1039.96 27.176C1039.32 27.176 1038.68 27.272 1038.04 27.464L1038.23 27.848C1039.06 27.848 1040.31 28.072 1041.98 28.52L1041.5 28.616L1040.82 29.192C1037.88 29 1033.5 28.616 1027.67 28.04C1028.06 27.528 1028.79 27.272 1029.88 27.272C1030.2 27.272 1030.65 27.304 1031.22 27.368C1031.86 27.432 1032.34 27.464 1032.66 27.464C1033.88 27.464 1034.62 27.208 1034.87 26.696C1029.94 26.184 1027.13 25.928 1026.42 25.928C1025.91 25.928 1025.4 26.056 1024.89 26.312C1024.18 26.632 1023.7 26.824 1023.45 26.888L1023.54 27.08L1023.16 27.656L1023.35 27.848L1023.26 28.136C1023.64 28.456 1024.6 28.744 1026.14 29C1027.67 29.192 1028.73 29.224 1029.3 29.096L1029.21 29.384C1028.7 29.512 1028.25 29.704 1027.86 29.96C1025.88 29.896 1023.86 29.832 1021.82 29.768C1019.32 29.64 1017.37 29.32 1015.96 28.808H1016.34V28.616C1017.3 28.168 1018.68 27.368 1020.47 26.216C1021.3 26.024 1023.22 25 1026.23 23.144C1027.9 23.272 1029.18 23.336 1030.07 23.336L1029.88 23.624C1029.37 23.752 1028.98 23.912 1028.73 24.104C1029.37 24.36 1032.66 24.744 1038.62 25.256C1044.25 25.704 1047.77 25.928 1049.18 25.928C1050.26 25.928 1051.06 25.736 1051.58 25.352V25.256C1054.01 25.448 1055.22 25.544 1055.22 25.544ZM1071.26 43.4C1071.26 44.872 1071.16 47.144 1070.97 50.216C1070.84 53.224 1070.78 55.464 1070.78 56.936C1070.78 58.856 1070.87 60.168 1071.06 60.872C1070.81 62.408 1070.68 66.472 1070.68 73.064L1070.2 73.736L1069.34 74.216L1068.95 74.888L1068.57 74.984L1067.9 75.848L1067.51 75.944L1067.61 72.392C1068.82 71.176 1069.56 68.84 1069.82 65.384C1069.88 62.76 1069.94 60.136 1070.01 57.512L1069.62 57.416C1069.37 57.672 1068.95 57.992 1068.38 58.376L1068.18 58.76L1067.9 58.856L1067.51 59.816V61.256C1067.51 62.472 1067.64 63.336 1067.9 63.848L1068.57 63.176L1068.76 63.368C1068.7 63.816 1068.66 65.032 1068.66 67.016L1066.74 68.264C1066.49 68.776 1065.91 69.416 1065.02 70.184C1064.95 68.904 1064.92 68.232 1064.92 68.168C1064.92 67.528 1065.02 66.824 1065.21 66.056L1065.4 66.152C1066.1 65.064 1066.46 63.88 1066.46 62.6C1066.46 62.536 1066.42 61.768 1066.36 60.296L1063.86 62.216C1063.61 63.176 1063.48 64.264 1063.48 65.48C1063.48 66.248 1063.54 67.496 1063.67 69.224C1063.86 70.952 1063.93 72.296 1063.86 73.256C1064.12 73.896 1064.34 74.344 1064.54 74.6C1064.79 74.408 1065.11 74.216 1065.5 74.024L1065.69 73.544C1065.75 73.8 1065.78 74.152 1065.78 74.6C1065.78 74.92 1065.75 75.432 1065.69 76.136C1065.62 76.84 1065.59 77.352 1065.59 77.672L1062.62 80.648L1062.23 80.552V79.88C1062.23 76.552 1062.33 71.592 1062.52 65C1062.71 58.408 1062.81 53.48 1062.81 50.216C1063.38 49.832 1063.77 49.352 1063.96 48.776C1064.02 49.096 1064.06 49.48 1064.06 49.928C1064.06 50.184 1064.06 50.536 1064.06 50.984C1063.99 51.496 1063.96 51.88 1063.96 52.136C1063.96 52.712 1064.02 53.16 1064.15 53.48C1064.54 53.48 1065.08 53.128 1065.78 52.424C1066.3 51.912 1066.81 51.4 1067.32 50.888C1068.54 50.888 1069.4 49.992 1069.91 48.2C1070.3 46.792 1070.42 45.416 1070.3 44.072L1070.58 43.688L1071.06 43.592L1071.26 43.4ZM1040.73 59.624C1040.54 60.072 1040.44 60.584 1040.44 61.16C1040.44 61.416 1040.47 61.832 1040.54 62.408C1040.6 62.984 1040.63 63.432 1040.63 63.752C1040.63 64.072 1040.57 64.488 1040.44 65L1036.7 64.424C1036.18 60.328 1035.06 57.864 1033.34 57.032C1031.93 56.328 1030.78 55.976 1029.88 55.976C1029.5 55.976 1029.11 56.104 1028.73 56.36L1023.35 55.4C1023.03 55.912 1022.87 56.552 1022.87 57.32C1022.87 57.576 1022.9 58.024 1022.97 58.664C1023.03 59.24 1023.06 59.688 1023.06 60.008C1023.06 60.52 1023 61 1022.87 61.448C1023 62.152 1023.13 62.92 1023.26 63.752C1023.38 64.52 1023.86 64.904 1024.7 64.904C1025.14 64.904 1025.98 64.68 1027.19 64.232L1028.25 63.176L1027.96 62.888L1028.25 62.216C1028.06 61.704 1027.96 61.192 1027.96 60.68L1028.44 60.008C1029.46 60.456 1030.68 60.616 1032.09 60.488L1031.61 67.4C1031.86 68.168 1031.99 69.256 1031.99 70.664C1031.93 72.328 1031.96 73.448 1032.09 74.024C1030.87 74.088 1030.2 74.12 1030.07 74.12C1029.05 74.12 1028.34 73.8 1027.96 73.16C1028.09 72.904 1028.15 72.68 1028.15 72.488C1028.15 69.864 1027 68.552 1024.7 68.552C1024.31 68.552 1023.8 68.616 1023.16 68.744L1022.87 77.768C1023.51 78.28 1024.44 78.6 1025.66 78.728C1027.13 78.856 1028.09 79.016 1028.54 79.208C1029.62 79.272 1031.06 78.984 1032.86 78.344C1033.62 78.344 1034.26 78.056 1034.78 77.48C1035.29 76.84 1035.77 76.232 1036.22 75.656C1036.15 75.208 1036.12 74.984 1036.12 74.984C1036.12 74.728 1036.15 74.312 1036.22 73.736C1036.34 73.16 1036.41 72.744 1036.41 72.488C1036.41 72.104 1036.34 71.752 1036.22 71.432C1036.34 71.368 1036.57 71.336 1036.89 71.336C1037.27 71.336 1037.85 71.432 1038.62 71.624C1039.38 71.752 1039.96 71.816 1040.34 71.816L1040.44 82.856L1039.96 84.2L1039.58 83.816L1038.62 84.104C1034.78 83.784 1029.02 83.08 1021.34 81.992C1020.95 82.056 1020.34 82.088 1019.51 82.088C1018.62 82.088 1015.51 81.672 1010.2 80.84V79.784C1010.2 78.504 1010.04 77.544 1009.72 76.904C1010.1 76.776 1010.36 76.712 1010.49 76.712C1010.81 76.712 1011.26 76.84 1011.83 77.096C1012.47 77.352 1012.95 77.48 1013.27 77.48C1014.3 77.48 1014.81 76.424 1014.81 74.312C1014.81 74.056 1014.78 73.48 1014.71 72.584C1014.65 71.88 1014.65 71.304 1014.71 70.856C1014.52 70.216 1014.42 69.224 1014.42 67.88C1014.42 67.048 1014.46 65.768 1014.52 64.04C1014.65 62.312 1014.71 61.032 1014.71 60.2C1014.71 57.256 1014.23 55.4 1013.27 54.632C1011.86 54.184 1011.06 53.96 1010.87 53.96C1010.62 53.96 1010.3 53.992 1009.91 54.056C1009.72 53.672 1009.62 53.32 1009.62 53C1009.62 52.808 1009.69 52.36 1009.82 51.656C1009.88 51.08 1009.88 50.632 1009.82 50.312C1011.61 50.568 1012.95 50.696 1013.85 50.696C1014.74 50.696 1015.58 50.568 1016.34 50.312C1016.86 50.632 1017.78 50.856 1019.13 50.984C1020.54 51.048 1021.56 51.272 1022.2 51.656C1022.46 51.592 1022.74 51.56 1023.06 51.56C1023.38 51.56 1023.86 51.592 1024.5 51.656C1025.14 51.72 1025.66 51.752 1026.04 51.752C1026.68 51.752 1027.26 51.656 1027.77 51.464C1029.3 51.528 1031.32 51.976 1033.82 52.808L1040.54 52.904C1040.66 53.544 1040.73 54.088 1040.73 54.536C1040.73 54.92 1040.7 55.496 1040.63 56.264C1040.57 56.968 1040.54 57.512 1040.54 57.896C1040.54 58.536 1040.6 59.112 1040.73 59.624Z" fill="black"/>
<path d="M1259 64.5C1259 99.0178 1231.02 127 1196.5 127C1161.98 127 1134 99.0178 1134 64.5C1134 29.9822 1161.98 2 1196.5 2C1231.02 2 1259 29.9822 1259 64.5Z" fill="#F2AD43"/>
<path d="M1236.67 39.056C1235.84 39.248 1232.92 39.568 1227.93 40.016C1217.5 41.04 1204.51 42.096 1188.96 43.184C1180.96 43.76 1176.32 44.048 1175.04 44.048C1174.4 44.048 1173.56 43.984 1172.54 43.856C1172.09 43.216 1171.32 42.608 1170.24 42.032C1169.15 41.456 1168.38 40.88 1167.93 40.304L1157.18 32.624C1157.56 32.496 1160.25 32.176 1165.24 31.664C1175.04 30.704 1185.4 29.84 1196.35 29.072C1205.88 28.432 1212.64 28.112 1216.6 28.112V28.304L1217.37 28.592C1217.82 28.976 1219.39 29.904 1222.08 31.376C1224.12 32.528 1227.23 34.16 1231.39 36.272V36.368C1232.16 36.624 1233.92 37.52 1236.67 39.056ZM1237.92 96.944C1237.92 99.952 1237.76 102.16 1237.44 103.568C1236.86 103.504 1236.57 103.472 1236.57 103.472C1236.32 103.472 1235.9 103.536 1235.32 103.664C1234.81 103.856 1234.46 103.952 1234.27 103.952C1232.16 104.208 1221.47 105.36 1202.2 107.408C1199.96 107.472 1196.64 107.824 1192.22 108.464C1191.71 108.4 1191.45 108.368 1191.45 108.368C1191.07 108.368 1190.59 108.528 1190.01 108.848C1187.9 108.848 1183.58 109.296 1177.05 110.192L1176 108.464L1173.6 47.6C1173.53 46.64 1174.11 45.776 1175.32 45.008C1177.24 45.008 1180.06 44.816 1183.77 44.432C1187.55 43.984 1190.36 43.76 1192.22 43.76C1193.12 43.76 1193.56 43.76 1193.56 43.76L1235.42 40.496C1236.57 40.432 1237.15 42 1237.15 45.2C1237.15 46.032 1237.24 46.672 1237.44 47.12L1237.92 96.944ZM1175.04 107.504C1175.04 108.272 1175 108.88 1174.94 109.328L1174.46 109.136L1173.88 108.464C1173.12 108.272 1170.56 105.936 1166.2 101.456C1161.85 96.976 1159.45 94.224 1159 93.2C1159 92.496 1158.97 91.504 1158.91 90.224L1157.47 61.808C1156.57 44.144 1156.12 34.8 1156.12 33.776L1156.51 33.392L1171.87 44.528C1172.44 46.576 1172.73 48.656 1172.73 50.768C1172.73 57.104 1173.12 66.576 1173.88 79.184C1174.65 91.728 1175.04 101.168 1175.04 107.504ZM1227.93 38.096L1212.67 29.744C1211.45 29.68 1210.72 29.648 1210.46 29.648L1172.83 32.336C1170.72 32.4 1168.19 32.72 1165.24 33.296C1165.31 33.296 1165.37 33.264 1165.44 33.2C1165.5 33.2 1165.53 33.232 1165.53 33.296C1165.53 33.424 1165.47 33.52 1165.34 33.584C1167.64 35.312 1169.95 37.04 1172.25 38.768C1175.58 41.008 1178.08 42.128 1179.74 42.128C1185.37 42.128 1192.28 41.776 1200.48 41.072C1207.32 40.432 1214.2 39.792 1221.12 39.152C1222.65 39.088 1224.92 38.736 1227.93 38.096ZM1231.87 95.984L1231.58 56.144C1231.32 55.568 1231.2 54.928 1231.2 54.224C1231.2 53.84 1231.23 53.328 1231.29 52.688C1231.36 51.984 1231.39 51.472 1231.39 51.152C1231.39 49.232 1230.62 48.112 1229.08 47.792L1228.89 47.984L1228.6 48.08L1227.93 47.6C1213.08 48.688 1197.98 50 1182.62 51.536C1181.21 52.688 1180.51 55.056 1180.51 58.64C1180.51 59.728 1180.99 72.016 1181.95 95.504C1182.01 97.424 1182.14 98.8 1182.33 99.632C1182.72 101.296 1183.45 102.416 1184.54 102.992L1230.81 97.904L1231.87 95.984ZM1173.02 99.344V98.864L1171.2 53.936C1171.07 51.44 1170.27 49.648 1168.8 48.56L1159.77 41.84C1159.45 41.712 1159.1 41.584 1158.72 41.456L1158.33 41.648C1158.2 42.096 1158.14 42.768 1158.14 43.664C1158.14 47.248 1158.46 55.504 1159.1 68.432C1159.8 82.384 1160.35 89.552 1160.73 89.936L1170.91 100.016C1170.91 100.016 1171.52 100.464 1172.73 101.36C1172.92 100.784 1173.02 100.112 1173.02 99.344ZM1215.55 37.04C1213.12 37.616 1209.18 37.904 1203.74 37.904L1202.97 37.424L1203.07 37.136C1204.22 37.008 1205.85 36.592 1207.96 35.888L1208.25 35.504C1207.42 34.48 1205.76 33.968 1203.26 33.968C1201.92 33.968 1200.83 34.128 1200 34.448L1199.71 34.928L1199.9 35.312L1199.61 35.792L1200 36.08V36.56L1200.38 37.04C1199.29 38.32 1196.09 38.96 1190.78 38.96C1184.25 38.96 1180.48 38.16 1179.45 36.56L1179.64 35.888L1180.32 35.312C1179.93 35.248 1179 35.216 1177.53 35.216C1177.6 35.024 1177.4 34.896 1176.96 34.832L1176.76 34.64C1178.11 34.384 1180.03 34.224 1182.52 34.16C1185.08 34.096 1186.94 33.968 1188.09 33.776L1189.15 34.448C1187.8 34.576 1186.81 34.736 1186.17 34.928C1184.96 35.248 1184.12 35.696 1183.68 36.272L1184.35 36.944C1185.63 37.328 1186.94 37.52 1188.28 37.52C1189.95 37.52 1191.1 37.264 1191.74 36.752L1191.84 36.368L1191.07 35.504L1191.36 35.408L1191.16 34.736C1192.06 33.584 1193.56 33.008 1195.68 33.008L1195.77 32.912C1196.22 32.912 1196.7 32.912 1197.21 32.912C1197.98 32.912 1199.13 32.88 1200.67 32.816C1202.2 32.688 1203.36 32.624 1204.12 32.624C1207.58 32.624 1210.2 33.36 1212 34.832C1212.19 34.96 1212.32 35.248 1212.38 35.696L1211.52 36.272C1212.86 36.272 1214.2 36.528 1215.55 37.04ZM1220.73 81.776C1220.73 85.232 1219 87.792 1215.55 89.456C1213.44 90.416 1210.2 91.152 1205.85 91.664C1205.08 91.408 1204.03 91.28 1202.68 91.28C1201.4 91.28 1200.03 90.736 1198.56 89.648C1197.72 91.312 1196.12 92.304 1193.76 92.624C1193.37 91.984 1193.21 91.024 1193.28 89.744C1193.4 88.464 1193.37 87.568 1193.18 87.056C1193.31 86.608 1193.37 86.16 1193.37 85.712C1193.37 85.264 1193.31 84.624 1193.18 83.792C1193.05 82.896 1192.99 82.224 1192.99 81.776C1192.99 81.456 1193.05 80.976 1193.18 80.336C1193.37 80.4 1193.63 80.432 1193.95 80.432C1194.14 80.432 1194.46 80.4 1194.91 80.336C1195.42 80.272 1195.8 80.24 1196.06 80.24C1197.28 80.24 1197.72 80.88 1197.4 82.16C1199.2 85.68 1202.24 87.44 1206.52 87.44C1208.25 87.44 1209.76 87.024 1211.04 86.192C1212.38 85.296 1213.05 84.016 1213.05 82.352C1212.41 80.88 1211.23 80.016 1209.5 79.76C1207.07 79.44 1205.6 79.12 1205.08 78.8L1203.74 78.896L1203.45 78.704L1202.88 78.8C1202.43 78.672 1201.82 78.48 1201.05 78.224C1200.8 78.288 1200.44 78.32 1200 78.32C1198.08 78.32 1195.87 77.072 1193.37 74.576C1193.31 74.32 1193.08 73.584 1192.7 72.368C1192.44 71.472 1192.32 70.736 1192.32 70.16C1192.32 69.712 1192.38 69.296 1192.51 68.912C1192.32 68.592 1192.22 68.208 1192.22 67.76C1192.22 67.248 1192.41 66.576 1192.8 65.744C1193.24 64.912 1193.5 64.336 1193.56 64.016C1194.14 63.44 1194.78 62.8 1195.48 62.096C1196.19 61.392 1196.86 61.04 1197.5 61.04C1198.27 60.272 1199 59.824 1199.71 59.696C1200.48 59.504 1201.05 59.28 1201.44 59.024C1203.23 58.576 1204.73 58.352 1205.95 58.352C1208.64 58.352 1211.36 59.088 1214.11 60.56C1214.49 60.048 1214.94 59.216 1215.45 58.064C1215.9 58.128 1216.12 58.16 1216.12 58.16C1216.32 58.16 1216.6 58.096 1216.99 57.968C1217.37 57.84 1217.69 57.776 1217.95 57.776C1218.59 57.776 1218.75 57.776 1218.43 57.776C1218.88 58.672 1219.1 60.656 1219.1 63.728C1219.1 65.136 1219.04 67.12 1218.91 69.68L1215.26 69.968C1214.68 66.512 1212.22 64.112 1207.87 62.768C1206.27 62.96 1204.7 63.12 1203.16 63.248C1201.82 63.568 1200.92 64.848 1200.48 67.088C1200.8 67.6 1200.89 68.144 1200.76 68.72L1201.05 69.2C1202.59 70.288 1204.64 70.832 1207.2 70.832C1207.9 70.832 1208.67 70.8 1209.5 70.736L1209.98 71.12C1214.97 71.568 1218.4 73.488 1220.25 76.88V77.84L1220.54 78.032L1220.25 78.608C1220.25 78.992 1220.32 79.536 1220.44 80.24C1220.64 80.88 1220.73 81.392 1220.73 81.776ZM1170.24 86.672L1169.85 86.768L1168.6 85.808C1168.48 85.232 1168.09 84.784 1167.45 84.464L1167.16 84.08L1166.97 80.336L1167.55 80.144C1168.32 79.312 1168.7 77.552 1168.7 74.864C1168.7 71.088 1168.25 68.336 1167.36 66.608H1166.78C1166.59 67.952 1166.49 69.36 1166.49 70.832C1166.49 72.048 1166.56 73.296 1166.68 74.576L1166.49 74.96C1166.56 75.344 1166.59 75.856 1166.59 76.496C1166.59 80.208 1166.14 82.544 1165.24 83.504L1165.05 83.312V83.504L1164.86 83.024L1164.48 83.12C1162.3 80.624 1161.21 74.832 1161.21 65.744C1161.21 63.248 1161.37 61.104 1161.69 59.312C1161.05 58.16 1160.73 56.4 1160.73 54.032L1161.12 53.84L1161.79 54.704H1162.17C1162.36 55.152 1162.78 55.472 1163.42 55.664L1163.8 56.24C1163.8 56.496 1163.84 56.88 1163.9 57.392C1163.9 57.904 1163.9 58.288 1163.9 58.544V60.176L1163.42 59.984C1162.65 61.136 1162.27 63.184 1162.27 66.128C1162.27 69.776 1162.65 72.656 1163.42 74.768L1163.8 75.056C1164.12 74.48 1164.41 71.824 1164.67 67.088C1164.86 61.904 1165.05 58.832 1165.24 57.872H1165.63L1166.01 57.68L1166.3 57.776L1166.78 58.352H1167.07C1168.86 61.424 1169.76 66.896 1169.76 74.768C1169.76 77.392 1169.63 79.696 1169.37 81.68C1169.63 82.512 1169.85 83.152 1170.04 83.6V83.984C1170.04 84.304 1170.08 84.784 1170.14 85.424C1170.2 86 1170.24 86.416 1170.24 86.672Z" fill="black"/>
</svg>
